<svg width="22" height="24" viewBox="0 0 22 24" fill="none" xmlns="http://www.w3.org/2000/svg">
<path opacity="0.4" fill-rule="evenodd" clip-rule="evenodd" d="M7.04583 3.92884H14.3236V2.26025H7.04583V3.92884ZM5.39035 2.32861V2.33692C4.82224 2.3878 4.26022 2.4989 3.71345 2.66607V2.65984C3.6972 2.66657 3.68189 2.67175 3.66721 2.67672C3.64792 2.68325 3.62971 2.68941 3.61182 2.69826C3.56812 2.70864 3.52544 2.72421 3.48479 2.74394C3.36486 2.78236 3.24494 2.82805 3.13213 2.87477C3.10215 2.88619 3.07217 2.89943 3.04219 2.91267C3.01221 2.92591 2.98222 2.93915 2.95224 2.95057C2.91108 2.96978 2.86815 2.9908 2.82521 3.01183L2.8252 3.01183C2.78226 3.03286 2.73933 3.05388 2.69817 3.07309L2.49491 3.18835C2.45733 3.20722 2.42254 3.22936 2.38704 3.25194C2.3659 3.26539 2.34452 3.279 2.32214 3.29218C2.01623 3.48635 1.73268 3.71374 1.47657 3.97228L1.46133 3.98786C1.42769 4.02647 1.3942 4.06393 1.36116 4.10089L1.36115 4.10089L1.36115 4.1009C1.30534 4.16332 1.25083 4.22429 1.19912 4.28689L1.18388 4.30143C0.352545 5.43113 -0.064139 6.82352 0.0080184 8.2346V8.68212H1.64935V8.23045C1.64935 6.26386 2.28555 5.03968 3.70126 4.41253C4.24193 4.18721 4.81309 4.04808 5.39442 3.9972H5.40966V2.33588L5.39035 2.32861ZM20.139 4.28115L20.1462 4.29569C20.9765 5.42642 21.3911 6.81985 21.3179 8.23093V8.68261H19.6776V8.21951C19.7122 7.38678 19.5425 6.55819 19.1827 5.80956C18.8372 5.16892 18.2843 4.67156 17.6166 4.40159C17.0851 4.17628 16.522 4.0361 15.9478 3.98626V2.33325C16.5159 2.38517 17.0779 2.49523 17.6257 2.6624V2.65409C17.6565 2.66785 17.68 2.67603 17.7203 2.69006L17.7274 2.69251C17.7461 2.69903 17.7635 2.70554 17.7808 2.71198C17.8048 2.72093 17.8284 2.72974 17.8544 2.7382C17.9668 2.7745 18.0719 2.81729 18.18 2.86132L18.1989 2.86903C18.2488 2.88628 18.2958 2.90769 18.3382 2.92697C18.3519 2.93322 18.3651 2.93924 18.3778 2.94482C18.4672 2.98324 18.5587 3.02893 18.6319 3.06735C18.6807 3.09229 18.7282 3.11897 18.7728 3.144C18.7969 3.15753 18.8201 3.17058 18.8422 3.1826C18.8787 3.2024 18.9103 3.22359 18.9408 3.24396C18.963 3.25884 18.9846 3.27328 19.0069 3.28643C19.3138 3.48164 19.6004 3.71007 19.8596 3.96654L19.8687 3.98211C19.9642 4.0766 20.0547 4.17628 20.139 4.28115Z" fill="#7542C2"/>
<path d="M15.9947 1.16942V4.84621C15.9947 5.30948 15.613 5.6847 15.1417 5.6847C14.6703 5.6847 14.2886 5.30948 14.2886 4.84621V1.17781C14.2843 0.714542 14.6639 0.336172 15.1353 0.333028C15.6066 0.329883 15.9915 0.701964 15.9947 1.16523V1.16942Z" fill="#7542C2"/>
<path d="M7.03763 1.1823V4.84999C7.03763 5.31527 6.65543 5.69252 6.18406 5.69252C5.71268 5.69252 5.33154 5.31527 5.33154 4.84999V1.1823C5.33154 0.717021 5.71268 0.34082 6.18406 0.34082C6.65543 0.34082 7.03763 0.717021 7.03763 1.1823Z" fill="#7542C2"/>
<path fill-rule="evenodd" clip-rule="evenodd" d="M0 17.7287V8.68213H21.3261V17.7287C21.3261 21.6737 19.0887 23.6669 14.6547 23.6669H6.66122C2.23736 23.6669 0 21.6737 0 17.7287ZM4.81031 13.7124C4.81031 14.2598 5.24761 14.7038 5.78661 14.7038C6.33578 14.7038 6.77308 14.2494 6.76291 13.7021C6.76291 13.1548 6.32561 12.7107 5.79678 12.7107H5.78661C5.24761 12.7107 4.81031 13.1651 4.81031 13.7124ZM9.68176 13.7127C9.68176 14.26 10.1292 14.7041 10.6682 14.7041C11.2072 14.7041 11.6445 14.26 11.6445 13.7023C11.6445 13.1653 11.2072 12.7213 10.6682 12.7109H10.6581C10.1191 12.7213 9.68176 13.1653 9.68176 13.7127ZM15.5396 14.704C15.0006 14.704 14.5633 14.2599 14.5633 13.7126C14.5633 13.1653 14.9904 12.7212 15.5396 12.7212C16.0786 12.7212 16.5159 13.1653 16.5159 13.7126C16.5159 14.2599 16.0786 14.704 15.5396 14.704ZM15.5393 18.9377C15.0003 18.9377 14.563 18.4936 14.5529 17.9462C14.5529 17.3989 14.9902 16.9548 15.5292 16.9548H15.5393C16.0783 16.9548 16.5156 17.3989 16.5156 17.9462C16.5156 18.4936 16.0783 18.9377 15.5393 18.9377ZM10.6682 18.9377C10.1292 18.9377 9.68176 18.4937 9.68176 17.9463C9.68176 17.399 10.1191 16.9549 10.6581 16.9446H10.6682C11.2072 16.9549 11.6344 17.399 11.6445 17.936C11.6445 18.4937 11.2072 18.9377 10.6682 18.9377ZM5.7867 18.9377C5.2477 18.9377 4.8104 18.4937 4.8104 17.9463C4.80023 17.399 5.23753 16.9446 5.7867 16.9446C6.3257 16.9446 6.763 17.3886 6.763 17.936C6.763 18.4833 6.3257 18.9377 5.7867 18.9377Z" fill="#7542C2"/>
</svg>
