<svg width="25" height="24" viewBox="0 0 25 24" fill="none" xmlns="http://www.w3.org/2000/svg">
<path d="M18.9699 16.83L19.3599 19.99C19.4599 20.82 18.5699 21.4 17.8599 20.97L14.3999 18.91C14.1599 18.77 14.0999 18.47 14.2299 18.23C14.7299 17.31 14.9999 16.27 14.9999 15.23C14.9999 11.57 11.8599 8.59 7.99989 8.59C7.20989 8.59 6.43989 8.71 5.71989 8.95C5.34989 9.07 4.98989 8.73 5.07989 8.35C5.98989 4.71 9.48989 2 13.6699 2C18.5499 2 22.4999 5.69 22.4999 10.24C22.4999 12.94 21.1099 15.33 18.9699 16.83Z" fill="#7542C2"/>
<path d="M13.5 15.2298C13.5 16.4198 13.06 17.5198 12.32 18.3898C11.33 19.5898 9.76 20.3598 8 20.3598L5.39 21.9098C4.95 22.1798 4.39 21.8098 4.45 21.2998L4.7 19.3298C3.36 18.3998 2.5 16.9098 2.5 15.2298C2.5 13.4698 3.44 11.9198 4.88 10.9998C5.77 10.4198 6.84 10.0898 8 10.0898C11.04 10.0898 13.5 12.3898 13.5 15.2298Z" fill="#7542C2"/>
</svg>
