<svg width="14" height="10" viewBox="0 0 14 10" fill="none" xmlns="http://www.w3.org/2000/svg">
<path d="M12.4048 0.916921C12.2967 0.920072 12.1941 0.965175 12.1186 1.04268L4.91934 8.24196L1.88319 5.2058C1.84483 5.16585 1.79888 5.13395 1.74804 5.11198C1.69719 5.09 1.64248 5.07839 1.58709 5.07783C1.5317 5.07727 1.47676 5.08776 1.42548 5.1087C1.3742 5.12963 1.32762 5.16059 1.28845 5.19976C1.24929 5.23892 1.21833 5.28551 1.19739 5.33679C1.17646 5.38807 1.16596 5.44301 1.16653 5.4984C1.16709 5.55378 1.1787 5.6085 1.20067 5.65934C1.22265 5.71019 1.25454 5.75613 1.2945 5.7945L4.625 9.12499C4.70307 9.20304 4.80895 9.24688 4.91934 9.24688C5.02974 9.24688 5.13561 9.20304 5.21369 9.12499L12.7073 1.63137C12.7674 1.57288 12.8084 1.49762 12.8249 1.41544C12.8415 1.33325 12.8329 1.24798 12.8002 1.17078C12.7675 1.09358 12.7123 1.02804 12.6418 0.982744C12.5712 0.937449 12.4886 0.914507 12.4048 0.916921Z" fill="white" stroke="white"/>
</svg>
