<svg width="56" height="56" viewBox="0 0 56 56" fill="none" xmlns="http://www.w3.org/2000/svg">
<circle cx="28" cy="28" r="27.5" fill="#7542C2" stroke="#7542C2"/>
<path d="M43.1338 16.5672C42.8311 16.576 42.5437 16.7023 42.3324 16.9193L22.1744 37.0773L13.6732 28.5761C13.5658 28.4642 13.4372 28.3749 13.2948 28.3134C13.1524 28.2518 12.9992 28.2193 12.8441 28.2177C12.6891 28.2162 12.5352 28.2455 12.3916 28.3042C12.2481 28.3628 12.1176 28.4495 12.008 28.5591C11.8983 28.6688 11.8116 28.7992 11.753 28.9428C11.6944 29.0864 11.665 29.2402 11.6666 29.3953C11.6681 29.5504 11.7006 29.7036 11.7622 29.846C11.8237 29.9883 11.913 30.117 12.0249 30.2244L21.3503 39.5498C21.5689 39.7683 21.8653 39.8911 22.1744 39.8911C22.4836 39.8911 22.78 39.7683 22.9986 39.5498L43.9807 18.5677C44.1489 18.4039 44.2637 18.1931 44.3101 17.963C44.3566 17.7329 44.3324 17.4942 44.2409 17.278C44.1494 17.0618 43.9948 16.8783 43.7972 16.7515C43.5997 16.6247 43.3685 16.5604 43.1338 16.5672Z" fill="white" stroke="white"/>
</svg>
