<svg width="18" height="9" viewBox="0 0 18 9" fill="none" xmlns="http://www.w3.org/2000/svg">
<path d="M16.7437 0.773438C16.8384 0.678706 17.0014 0.678719 17.0962 0.773438C17.1792 0.856403 17.1898 0.991835 17.1274 1.08789L17.0962 1.12598L10.5767 7.64648C10.1438 8.07934 9.57227 8.29968 9.00049 8.2998C8.5001 8.2998 7.99954 8.13102 7.59229 7.79883L7.42334 7.64648L0.903809 1.12598C0.809071 1.03124 0.809071 0.868175 0.903809 0.773438C0.986769 0.690477 1.12221 0.679854 1.21826 0.742188L1.25635 0.773438L7.77686 7.29297C8.4099 7.92593 9.41297 7.96595 10.0923 7.41211L10.2231 7.29297L16.7437 0.773438Z" fill="#56687A" stroke="#56687A"/>
</svg>
