<svg width="18" height="16" viewBox="0 0 18 16" fill="none" xmlns="http://www.w3.org/2000/svg">
<path d="M0.330469 5.35284C0.330469 5.18074 0.400469 5.00865 0.550468 4.87278C0.840469 4.61011 1.32047 4.61011 1.61047 4.87278L8.13047 10.7783C8.61047 11.2131 9.39047 11.2131 9.87047 10.7783L16.3905 4.87278C16.6805 4.61011 17.1605 4.61011 17.4505 4.87278C17.7405 5.13545 17.7405 5.57022 17.4505 5.83289L10.9305 11.7384C10.4205 12.2004 9.73047 12.463 9.00047 12.463C8.27047 12.463 7.58047 12.2094 7.07047 11.7384L0.550468 5.83289C0.410469 5.69702 0.330469 5.52493 0.330469 5.35284Z" fill="#292D32"/>
</svg>
