<svg width="24" height="25" viewBox="0 0 24 25" fill="none" xmlns="http://www.w3.org/2000/svg">
<path d="M15.5799 12.4286C15.5799 14.4086 13.9799 16.0086 11.9999 16.0086C10.0199 16.0086 8.41992 14.4086 8.41992 12.4286C8.41992 10.4486 10.0199 8.84863 11.9999 8.84863C13.9799 8.84863 15.5799 10.4486 15.5799 12.4286Z" fill="#56687A" stroke="#56687A" stroke-width="1.5" stroke-linecap="round" stroke-linejoin="round"/>
<path d="M12.0001 20.6986C15.5301 20.6986 18.8201 18.6186 21.1101 15.0186C22.0101 13.6086 22.0101 11.2386 21.1101 9.82856C18.8201 6.22856 15.5301 4.14856 12.0001 4.14856C8.47009 4.14856 5.18009 6.22856 2.89009 9.82856C1.99009 11.2386 1.99009 13.6086 2.89009 15.0186C5.18009 18.6186 8.47009 20.6986 12.0001 20.6986Z" stroke="#56687A" stroke-width="1.5" stroke-linecap="round" stroke-linejoin="round"/>
</svg>
