<svg width="22" height="21" viewBox="0 0 22 21" fill="none" xmlns="http://www.w3.org/2000/svg">
<path d="M18.5248 3.58789V5.51289C18.5248 6.21289 18.0873 7.08789 17.6498 7.52539L13.8873 10.8504C13.3623 11.2879 13.0123 12.1629 13.0123 12.8629V16.6254C13.0123 17.1504 12.6623 17.8504 12.2248 18.1129L10.9998 18.9004C9.86228 19.6004 8.28728 18.8129 8.28728 17.4129V12.7754C8.28728 12.1629 7.93728 11.3754 7.58728 10.9379L7.17603 10.5091C6.90478 10.2204 6.85228 9.78289 7.07103 9.44164L11.551 2.24914C11.7085 1.99539 11.9885 1.83789 12.2948 1.83789H16.7748C17.7373 1.83789 18.5248 2.62539 18.5248 3.58789Z" fill="#7542C2"/>
<path d="M9.55635 3.17664L6.4501 8.15539C6.1526 8.63664 5.4701 8.70664 5.07635 8.29539L4.2626 7.43789C3.8251 7.00039 3.4751 6.21289 3.4751 5.68789V3.67539C3.4751 2.62539 4.2626 1.83789 5.2251 1.83789H8.8126C9.4951 1.83789 9.9151 2.59039 9.55635 3.17664Z" fill="#7542C2"/>
</svg>
