<svg width="21" height="21" viewBox="0 0 21 21" fill="none" xmlns="http://www.w3.org/2000/svg">
<path d="M18.025 3.5874V5.5124C18.025 6.2124 17.5875 7.0874 17.15 7.5249L13.3875 10.8499C12.8625 11.2874 12.5125 12.1624 12.5125 12.8624V16.6249C12.5125 17.1499 12.1625 17.8499 11.725 18.1124L10.5 18.8999C9.36252 19.5999 7.78752 18.8124 7.78752 17.4124V12.7749C7.78752 12.1624 7.43752 11.3749 7.08752 10.9374L6.67627 10.5087C6.40502 10.2199 6.35252 9.7824 6.57127 9.44115L11.0513 2.24865C11.2088 1.9949 11.4888 1.8374 11.795 1.8374H16.275C17.2375 1.8374 18.025 2.6249 18.025 3.5874Z" fill="#C0A8E3"/>
<path d="M9.05635 3.17615L5.9501 8.1549C5.6526 8.63615 4.9701 8.70615 4.57635 8.2949L3.7626 7.4374C3.3251 6.9999 2.9751 6.2124 2.9751 5.6874V3.6749C2.9751 2.6249 3.7626 1.8374 4.7251 1.8374H8.3126C8.9951 1.8374 9.4151 2.5899 9.05635 3.17615Z" fill="#C0A8E3"/>
</svg>
