<svg width="41" height="40" viewBox="0 0 41 40" fill="none" xmlns="http://www.w3.org/2000/svg">
<path d="M15.4998 16.6667C17.3408 16.6667 18.8332 15.1743 18.8332 13.3333C18.8332 11.4924 17.3408 10 15.4998 10C13.6589 10 12.1665 11.4924 12.1665 13.3333C12.1665 15.1743 13.6589 16.6667 15.4998 16.6667Z" stroke="#8F9AB0" stroke-width="3" stroke-linecap="round" stroke-linejoin="round"/>
<path d="M22.1668 3.33325H15.5002C7.16683 3.33325 3.8335 6.66659 3.8335 14.9999V24.9999C3.8335 33.3333 7.16683 36.6666 15.5002 36.6666H25.5002C33.8335 36.6666 37.1668 33.3333 37.1668 24.9999V16.6666" stroke="#8F9AB0" stroke-width="3" stroke-linecap="round" stroke-linejoin="round"/>
<path d="M26.75 8.33325H35.9167" stroke="#8F9AB0" stroke-width="3" stroke-linecap="round"/>
<path d="M31.3335 12.9167V3.75" stroke="#8F9AB0" stroke-width="3" stroke-linecap="round"/>
<path d="M4.9502 31.5834L13.1669 26.0667C14.4835 25.1834 16.3835 25.2833 17.5669 26.3L18.1169 26.7833C19.4169 27.9 21.5169 27.9 22.8169 26.7833L29.7502 20.8333C31.0502 19.7167 33.1502 19.7167 34.4502 20.8333L37.1669 23.1667" stroke="#8F9AB0" stroke-width="3" stroke-linecap="round" stroke-linejoin="round"/>
</svg>
