<svg width="20" height="20" viewBox="0 0 20 20" fill="none" xmlns="http://www.w3.org/2000/svg">
<circle cx="10" cy="10" r="9.5" fill="#12B76A" stroke="#12B76A"/>
<path d="M15.4048 5.91692C15.2967 5.92007 15.1941 5.96517 15.1186 6.04268L7.91934 13.242L4.88319 10.2058C4.84483 10.1658 4.79888 10.134 4.74804 10.112C4.69719 10.09 4.64248 10.0784 4.58709 10.0778C4.5317 10.0773 4.47676 10.0878 4.42548 10.1087C4.3742 10.1296 4.32762 10.1606 4.28845 10.1998C4.24929 10.2389 4.21833 10.2855 4.19739 10.3368C4.17646 10.3881 4.16596 10.443 4.16653 10.4984C4.16709 10.5538 4.1787 10.6085 4.20067 10.6593C4.22265 10.7102 4.25454 10.7561 4.2945 10.7945L7.625 14.125C7.70307 14.203 7.80895 14.2469 7.91934 14.2469C8.02974 14.2469 8.13561 14.203 8.21369 14.125L15.7073 6.63137C15.7674 6.57288 15.8084 6.49762 15.8249 6.41544C15.8415 6.33325 15.8329 6.24798 15.8002 6.17078C15.7675 6.09358 15.7123 6.02804 15.6418 5.98274C15.5712 5.93745 15.4886 5.91451 15.4048 5.91692Z" fill="white" stroke="white"/>
</svg>
