<svg width="24" height="20" viewBox="0 0 24 20" fill="none" xmlns="http://www.w3.org/2000/svg">
<g opacity="0.94">
<path fill-rule="evenodd" clip-rule="evenodd" d="M0 1.2C0 0.537258 0.537258 0 1.2 0H22.5798C23.2426 0 23.7798 0.537258 23.7798 1.2C23.7798 1.86274 23.2426 2.4 22.5798 2.4H1.2C0.537261 2.4 0 1.86274 0 1.2ZM0 9.59992C0 8.93718 0.537258 8.39992 1.2 8.39992H16.6349C17.2976 8.39992 17.8349 8.93718 17.8349 9.59992C17.8349 10.2627 17.2976 10.7999 16.6349 10.7999H1.2C0.537261 10.7999 0 10.2627 0 9.59992ZM1.2 16.8C0.537258 16.8 0 17.3373 0 18C0 18.6628 0.537261 19.2 1.2 19.2H22.5798C23.2426 19.2 23.7798 18.6628 23.7798 18C23.7798 17.3373 23.2426 16.8 22.5798 16.8H1.2Z" fill="white"/>
</g>
</svg>
