<svg width="47" height="138" viewBox="0 0 47 138" fill="none" xmlns="http://www.w3.org/2000/svg">
<path d="M45.4608 95.0401C42.92 91.8297 40.8895 87.9942 37.9447 85.0805C33.8092 81.0013 27.7283 77.7591 23.3696 73.7965L15.8323 79.2001C15.6196 79.9841 16.3532 80.0689 16.7253 80.4397C23.9012 87.5386 41.3573 95.6864 44.8017 105.084C46.205 108.92 46.4176 112.575 45.195 116.506C37.8384 102.34 21.8388 95.5911 10.4423 85.0699L9.68754 84.8474C6.40257 87.8035 7.39125 93.3872 10.0915 96.4599C15.5346 102.658 29.2486 110.499 36.265 116.284C43.2815 122.069 47.7358 127.578 45.4608 137.453C43.7386 135.631 42.7818 133.31 41.1446 131.297C33.0544 121.38 18.3624 113.794 8.58192 105.222C-16.7517 83.0356 20.7119 67.9796 34.7023 55.0427C38.5826 51.4509 40.241 46.9373 36.5627 42.4131C26.24 50.3596 14.7798 57.4691 5.61587 66.8671L0.757513 74.0931C-3.85634 55.1911 19.7126 47.8167 30.3754 36.7764L22.8487 31.394C17.4694 35.6639 10.6443 39.6689 6.15805 44.85C4.08501 47.2446 2.71361 50.1583 0.757513 52.6164C-2.60188 39.8384 7.27431 32.8879 16.3851 26.5731C16.3851 25.45 8.10353 19.8556 6.66834 18.5312C1.07644 13.3501 -0.943445 7.59685 0.746882 0C2.37342 1.3668 2.96876 3.57063 4.287 5.31885C12.2496 15.8824 28.6213 24.2209 38.7101 33.3011C48.193 41.841 48.7564 52.3727 39.2736 61.2198C37.966 62.4383 29.6313 68.1809 29.8333 68.9862C38.7314 75.6507 48.8096 82.1138 45.4502 95.0295L45.4608 95.0401Z" fill="#7641C3"/>
</svg>
