<svg width="60" height="179" viewBox="0 0 60 179" fill="none" xmlns="http://www.w3.org/2000/svg">
<path d="M59.1527 123.767C55.8466 119.586 53.2046 114.591 49.3729 110.797C43.9919 105.485 36.0795 101.263 30.4081 96.1023L20.6006 103.139C20.3239 104.16 21.2784 104.271 21.7626 104.754C31.0997 113.998 53.8132 124.609 58.2951 136.847C60.121 141.842 60.3976 146.603 58.8069 151.722C49.2346 133.274 28.4162 124.485 13.5874 110.783L12.6052 110.493C8.33089 114.343 9.61734 121.615 13.1309 125.616C20.2133 133.688 38.0576 143.898 47.1873 151.432C56.317 158.965 62.1129 166.14 59.1527 179C56.9118 176.627 55.6668 173.605 53.5366 170.983C43.0098 158.069 23.8928 148.189 11.1666 137.027C-21.797 108.134 26.9499 88.5273 45.1539 71.68C50.2029 67.0025 52.3608 61.1246 47.5746 55.2329C34.1429 65.5814 19.2312 74.8398 7.30726 87.0785L0.98566 96.4886C-5.01779 71.8732 25.6496 62.2699 39.5239 47.8925L29.7303 40.8831C22.7309 46.4437 13.8502 51.6593 8.01274 58.4065C5.31533 61.5248 3.5309 65.3192 0.98566 68.5203C-3.38551 51.8801 9.46518 42.8286 21.3199 34.6051C21.3199 33.1425 10.5441 25.8572 8.67671 24.1325C1.40065 17.3853 -1.22759 9.89309 0.971828 0C3.08825 1.77993 3.86289 4.64989 5.57816 6.92654C15.9389 20.683 37.2415 31.542 50.3688 43.3668C62.7077 54.4879 63.4409 68.203 51.102 79.7242C49.4005 81.311 38.5556 88.7894 38.8184 89.8381C50.3965 98.5169 63.51 106.934 59.1389 123.753L59.1527 123.767Z" fill="#CA89FF"/>
</svg>
