<svg width="23" height="22" viewBox="0 0 23 22" fill="none" xmlns="http://www.w3.org/2000/svg">
<path d="M19.75 10.5417C19.7532 11.7516 19.4705 12.9451 18.925 14.025C18.2782 15.3191 17.2839 16.4076 16.0535 17.1685C14.8231 17.9295 13.4051 18.3328 11.9583 18.3334C10.7485 18.3365 9.55494 18.0538 8.475 17.5084L3.25 19.25L4.99167 14.025C4.44619 12.9451 4.16351 11.7516 4.16667 10.5417C4.16723 9.09497 4.57056 7.67697 5.33149 6.44653C6.09242 5.21609 7.1809 4.2218 8.475 3.57503C9.55494 3.02955 10.7485 2.74687 11.9583 2.75003H12.4167C14.3273 2.85544 16.132 3.66189 17.485 5.01498C18.8381 6.36807 19.6446 8.17271 19.75 10.0834V10.5417Z" stroke="#7542C2" stroke-width="1.5" stroke-linecap="round" stroke-linejoin="round"/>
</svg>
