<svg width="24" height="24" viewBox="0 0 24 24" fill="none" xmlns="http://www.w3.org/2000/svg">
<path d="M11.5 21C16.7467 21 21 16.7467 21 11.5C21 6.25329 16.7467 2 11.5 2C6.25329 2 2 6.25329 2 11.5C2 16.7467 6.25329 21 11.5 21Z" fill="white"/>
<path d="M21.3 21.9996C21.12 21.9996 20.94 21.9296 20.81 21.7996L18.95 19.9396C18.68 19.6696 18.68 19.2296 18.95 18.9496C19.22 18.6796 19.66 18.6796 19.94 18.9496L21.8 20.8096C22.07 21.0796 22.07 21.5196 21.8 21.7996C21.66 21.9296 21.48 21.9996 21.3 21.9996Z" fill="white"/>
</svg>
