<svg width="56" height="56" viewBox="0 0 56 56" fill="none" xmlns="http://www.w3.org/2000/svg">
<circle cx="28" cy="28" r="27.5" fill="#7542C2" stroke="#7542C2"/>
<path d="M43.1338 16.5679C42.8311 16.5767 42.5437 16.703 42.3324 16.92L22.1744 37.078L13.6732 28.5767C13.5658 28.4649 13.4372 28.3756 13.2948 28.314C13.1524 28.2525 12.9992 28.22 12.8441 28.2184C12.6891 28.2168 12.5352 28.2462 12.3916 28.3048C12.2481 28.3635 12.1176 28.4501 12.008 28.5598C11.8983 28.6695 11.8116 28.7999 11.753 28.9435C11.6944 29.0871 11.665 29.2409 11.6666 29.396C11.6681 29.5511 11.7006 29.7043 11.7622 29.8466C11.8237 29.989 11.913 30.1177 12.0249 30.2251L21.3503 39.5505C21.5689 39.769 21.8653 39.8917 22.1744 39.8917C22.4836 39.8917 22.78 39.769 22.9986 39.5505L43.9807 18.5683C44.1489 18.4046 44.2637 18.1938 44.3101 17.9637C44.3566 17.7336 44.3324 17.4948 44.2409 17.2787C44.1494 17.0625 43.9948 16.879 43.7972 16.7522C43.5997 16.6253 43.3685 16.5611 43.1338 16.5679Z" fill="white" stroke="white"/>
</svg>
