<svg width="48" height="48" viewBox="0 0 48 48" fill="none" xmlns="http://www.w3.org/2000/svg">
<rect opacity="0.12" width="48" height="48" rx="12" fill="#7641C3"/>
<path d="M34 22.75C34.41 22.75 34.75 22.41 34.75 22V21C34.75 16.59 33.41 15.25 29 15.25H22.75V17.5C22.75 17.91 22.41 18.25 22 18.25C21.59 18.25 21.25 17.91 21.25 17.5V15.25H19C14.59 15.25 13.25 16.59 13.25 21V21.5C13.25 21.91 13.59 22.25 14 22.25C14.96 22.25 15.75 23.04 15.75 24C15.75 24.96 14.96 25.75 14 25.75C13.59 25.75 13.25 26.09 13.25 26.5V27C13.25 31.41 14.59 32.75 19 32.75H21.25V30.5C21.25 30.09 21.59 29.75 22 29.75C22.41 29.75 22.75 30.09 22.75 30.5V32.75H29C33.41 32.75 34.75 31.41 34.75 27C34.75 26.59 34.41 26.25 34 26.25C33.04 26.25 32.25 25.46 32.25 24.5C32.25 23.54 33.04 22.75 34 22.75ZM22.75 26.17C22.75 26.58 22.41 26.92 22 26.92C21.59 26.92 21.25 26.58 21.25 26.17V21.83C21.25 21.42 21.59 21.08 22 21.08C22.41 21.08 22.75 21.42 22.75 21.83V26.17Z" fill="#7641C3"/>
</svg>
